<?xml version="1.0" encoding="UTF-8" standalone="no"?><svg xmlns="http://www.w3.org/2000/svg" xmlns:xlink="http://www.w3.org/1999/xlink" contentScriptType="application/ecmascript" contentStyleType="text/css" height="174px" preserveAspectRatio="none" style="width:646px;height:174px;background:#FFFFFF;" version="1.1" viewBox="0 0 646 174" width="646px" zoomAndPan="magnify"><defs><filter height="300%" id="fgb4eu8ywr8ru" width="300%" x="-1" y="-1"><feGaussianBlur result="blurOut" stdDeviation="2.0"/><feColorMatrix in="blurOut" result="blurOut2" type="matrix" values="0 0 0 0 0 0 0 0 0 0 0 0 0 0 0 0 0 0 .4 0"/><feOffset dx="4.0" dy="4.0" in="blurOut2" result="blurOut3"/><feBlend in="SourceGraphic" in2="blurOut3" mode="normal"/></filter></defs><g><!--MD5=[42d0012229d1b4b18179e8977df5d2cd]
entity csrm--><rect fill="#FEFECE" filter="url(#fgb4eu8ywr8ru)" height="47.6094" style="stroke:#000000;stroke-width:1.5;" width="80" x="289.5" y="7"/><path d="M316.1667,7 L316.1667,12 L309.1667,19 L289.5,19 " fill="none" style="stroke:#000000;stroke-width:1.5;"/><text fill="#000000" font-family="sans-serif" font-size="14" lengthAdjust="spacing" textLength="40" x="304.5" y="41.5332">CSRM</text><!--MD5=[0286584e89f8a966c1b711fce63a36d0]
entity arch--><rect fill="#FEFECE" filter="url(#fgb4eu8ywr8ru)" height="47.6094" style="stroke:#000000;stroke-width:1.5;" width="185" x="7" y="115"/><path d="M68.6667,115 L68.6667,120 L61.6667,127 L7,127 " fill="none" style="stroke:#000000;stroke-width:1.5;"/><text fill="#000000" font-family="sans-serif" font-size="14" lengthAdjust="spacing" textLength="145" x="22" y="149.5332">Architecture Structures</text><!--MD5=[2d861b52a92f4086b18880d49c2d7f05]
entity vandv--><rect fill="#FEFECE" filter="url(#fgb4eu8ywr8ru)" height="47.6094" style="stroke:#000000;stroke-width:1.5;" width="204" x="227.5" y="115"/><path d="M295.5,115 L295.5,120 L288.5,127 L227.5,127 " fill="none" style="stroke:#000000;stroke-width:1.5;"/><text fill="#000000" font-family="sans-serif" font-size="14" lengthAdjust="spacing" textLength="164" x="242.5" y="149.5332">Validation and Verification</text><!--MD5=[3505f4ab8e3f7e78dbcb0ba52b6c03e3]
entity measures--><rect fill="#FEFECE" filter="url(#fgb4eu8ywr8ru)" height="47.6094" style="stroke:#000000;stroke-width:1.5;" width="167" x="467" y="115"/><path d="M522.6667,115 L522.6667,120 L515.6667,127 L467,127 " fill="none" style="stroke:#000000;stroke-width:1.5;"/><text fill="#000000" font-family="sans-serif" font-size="14" lengthAdjust="spacing" textLength="127" x="482" y="149.5332">Technical Measures</text><!--MD5=[afc68171b5dd3d3b81539d31c7f1d809]
reverse link csrm to arch--><path d="M274.44,31 C274.44,31 99.5,31 99.5,31 C99.5,31 99.5,82.92 99.5,114.76 " fill="none" id="csrm-backto-arch" style="stroke:#A80036;stroke-width:1.0;"/><ellipse cx="281.44" cy="31" fill="#FFFFFF" rx="8" ry="8" style="stroke:#A80036;stroke-width:1.0;"/><line style="stroke:#A80036;stroke-width:1.0;" x1="273.44" x2="289.44" y1="31" y2="31"/><line style="stroke:#A80036;stroke-width:1.0;" x1="281.44" x2="281.44" y1="23" y2="39"/><!--MD5=[2bc8fb6e0528f1ad617b6b8950dca9f3]
reverse link csrm to vandv--><path d="M329.5,70.24 C329.5,70.24 329.5,114.84 329.5,114.84 " fill="none" id="csrm-backto-vandv" style="stroke:#A80036;stroke-width:1.0;"/><ellipse cx="329.5" cy="63.24" fill="#FFFFFF" rx="8" ry="8" style="stroke:#A80036;stroke-width:1.0;"/><line style="stroke:#A80036;stroke-width:1.0;" x1="329.5" x2="329.5" y1="71.24" y2="55.24"/><line style="stroke:#A80036;stroke-width:1.0;" x1="321.5" x2="337.5" y1="63.24" y2="63.24"/><!--MD5=[44a38205dd339d7a2f36e542387576de]
reverse link csrm to measures--><path d="M384.52,31 C384.52,31 550.5,31 550.5,31 C550.5,31 550.5,82.92 550.5,114.76 " fill="none" id="csrm-backto-measures" style="stroke:#A80036;stroke-width:1.0;"/><ellipse cx="377.52" cy="31" fill="#FFFFFF" rx="8" ry="8" style="stroke:#A80036;stroke-width:1.0;"/><line style="stroke:#A80036;stroke-width:1.0;" x1="385.52" x2="369.52" y1="31" y2="31"/><line style="stroke:#A80036;stroke-width:1.0;" x1="377.52" x2="377.52" y1="39" y2="23"/><!--MD5=[ba732ae9fa7c7feafa57a03825b5ce4c]
@startuml csrm

skinparam Linetype ortho

frame "CSRM" as csrm

frame "Architecture Structures" as arch
frame "Validation and Verification" as vandv
frame "Technical Measures" as measures

csrm +- - arch
csrm +- - vandv
csrm +- - measures

@enduml

PlantUML version 1.2022.0(Tue Jan 11 18:16:42 EET 2022)
(GPL source distribution)
Java Runtime: Java(TM) SE Runtime Environment
JVM: Java HotSpot(TM) 64-Bit Server VM
Default Encoding: Cp1252
Language: en
Country: US
--></g></svg>