<?xml version="1.0" encoding="UTF-8" standalone="no"?><svg xmlns="http://www.w3.org/2000/svg" xmlns:xlink="http://www.w3.org/1999/xlink" contentScriptType="application/ecmascript" contentStyleType="text/css" height="484px" preserveAspectRatio="none" style="width:1655px;height:484px;background:#FFFFFF;" version="1.1" viewBox="0 0 1655 484" width="1655px" zoomAndPan="magnify"><defs><filter height="300%" id="ft1jp4fbiplc4" width="300%" x="-1" y="-1"><feGaussianBlur result="blurOut" stdDeviation="2.0"/><feColorMatrix in="blurOut" result="blurOut2" type="matrix" values="0 0 0 0 0 0 0 0 0 0 0 0 0 0 0 0 0 0 .4 0"/><feOffset dx="4.0" dy="4.0" in="blurOut2" result="blurOut3"/><feBlend in="SourceGraphic" in2="blurOut3" mode="normal"/></filter></defs><g><!--MD5=[8d5f3fbc5180f273c67365527ee996cf]
cluster measures--><rect fill="#FFFFFF" filter="url(#ft1jp4fbiplc4)" height="465" style="stroke:#000000;stroke-width:1.5;" width="1636" x="7" y="7"/><path d="M157,7 L157,17.6094 L147,27.6094 L7,27.6094 " fill="none" style="stroke:#000000;stroke-width:1.5;"/><text fill="#000000" font-family="sans-serif" font-size="14" font-weight="bold" lengthAdjust="spacing" textLength="140" x="10" y="22.5332">FCS Tech Measures</text><!--MD5=[a282cc1e2cc8cd5b64a0e93470057960]
cluster FCS--><rect fill="#FFFFFF" filter="url(#ft1jp4fbiplc4)" height="276.5" style="stroke:#000000;stroke-width:1.5;" width="948" x="31" y="51"/><path d="M69,51 L69,61.6094 L59,71.6094 L31,71.6094 " fill="none" style="stroke:#000000;stroke-width:1.5;"/><text fill="#000000" font-family="sans-serif" font-size="14" font-weight="bold" lengthAdjust="spacing" textLength="28" x="34" y="66.5332">FCS</text><!--MD5=[5b16638da74ee2624443ac6b2748fb53]
cluster cs--><rect fill="#FFFFFF" filter="url(#ft1jp4fbiplc4)" height="216" style="stroke:#000000;stroke-width:1.5;" width="600" x="1011" y="224"/><path d="M1157,224 L1157,234.6094 L1147,244.6094 L1011,244.6094 " fill="none" style="stroke:#000000;stroke-width:1.5;"/><text fill="#000000" font-family="sans-serif" font-size="14" font-weight="bold" lengthAdjust="spacing" textLength="136" x="1014" y="239.5332">Constituent System</text><rect fill="#FEFECE" filter="url(#ft1jp4fbiplc4)" height="39.6719" style="stroke:#A80036;stroke-width:1.5;" width="87" x="407.5" y="99.5"/><text fill="#000000" font-family="sans-serif" font-size="12" lengthAdjust="spacing" textLength="73" x="414.5" y="113.957">Stakeholders</text><line style="stroke:#A80036;stroke-width:1.5;" x1="408.5" x2="493.5" y1="118.5938" y2="118.5938"/><ellipse cx="418.5" cy="129.5938" rx="3" ry="3" style="stroke:#038048;stroke-width:1.0;fill:none;"/><text fill="#000000" font-family="sans-serif" font-size="10" lengthAdjust="spacing" textLength="9" x="427.5" y="132.9746">id</text><rect fill="#FEFECE" filter="url(#ft1jp4fbiplc4)" height="64.8281" style="stroke:#A80036;stroke-width:1.5;" width="70" x="47" y="87"/><text fill="#000000" font-family="sans-serif" font-size="12" lengthAdjust="spacing" textLength="49" x="57.5" y="101.457">MISSION</text><line style="stroke:#A80036;stroke-width:1.5;" x1="48" x2="116" y1="106.0938" y2="106.0938"/><ellipse cx="58" cy="117.0938" rx="3" ry="3" style="stroke:#038048;stroke-width:1.0;fill:none;"/><text fill="#000000" font-family="sans-serif" font-size="10" lengthAdjust="spacing" textLength="44" x="67" y="120.4746">objective</text><ellipse cx="58" cy="129.6719" rx="3" ry="3" style="stroke:#038048;stroke-width:1.0;fill:none;"/><text fill="#000000" font-family="sans-serif" font-size="10" lengthAdjust="spacing" textLength="25" x="67" y="133.0527">goals</text><ellipse cx="58" cy="142.25" rx="3" ry="3" style="stroke:#038048;stroke-width:1.0;fill:none;"/><text fill="#000000" font-family="sans-serif" font-size="10" lengthAdjust="spacing" textLength="28" x="67" y="145.6309">needs</text><rect fill="#FEFECE" filter="url(#ft1jp4fbiplc4)" height="52.25" style="stroke:#A80036;stroke-width:1.5;" width="154" x="572" y="93.5"/><text fill="#000000" font-family="sans-serif" font-size="12" lengthAdjust="spacing" textLength="140" x="579" y="107.957">MeasuresOfEffectiveness</text><line style="stroke:#A80036;stroke-width:1.5;" x1="573" x2="725" y1="112.5938" y2="112.5938"/><ellipse cx="583" cy="123.5938" rx="3" ry="3" style="stroke:#038048;stroke-width:1.0;fill:none;"/><text fill="#000000" font-family="sans-serif" font-size="10" lengthAdjust="spacing" textLength="42" x="592" y="126.9746">summary</text><ellipse cx="583" cy="136.1719" rx="3" ry="3" style="stroke:#038048;stroke-width:1.0;fill:none;"/><text fill="#000000" font-family="sans-serif" font-size="10" lengthAdjust="spacing" textLength="9" x="592" y="139.5527">id</text><rect fill="#FEFECE" filter="url(#ft1jp4fbiplc4)" height="52.25" style="stroke:#A80036;stroke-width:1.5;" width="170" x="202" y="93.5"/><text fill="#000000" font-family="sans-serif" font-size="12" lengthAdjust="spacing" textLength="156" x="209" y="107.957">KeyPerformanceParameters</text><line style="stroke:#A80036;stroke-width:1.5;" x1="203" x2="371" y1="112.5938" y2="112.5938"/><ellipse cx="213" cy="123.5938" rx="3" ry="3" style="stroke:#038048;stroke-width:1.0;fill:none;"/><text fill="#000000" font-family="sans-serif" font-size="10" lengthAdjust="spacing" textLength="42" x="222" y="126.9746">summary</text><ellipse cx="213" cy="136.1719" rx="3" ry="3" style="stroke:#038048;stroke-width:1.0;fill:none;"/><text fill="#000000" font-family="sans-serif" font-size="10" lengthAdjust="spacing" textLength="9" x="222" y="139.5527">id</text><rect fill="#FEFECE" filter="url(#ft1jp4fbiplc4)" height="35.0938" style="stroke:#A80036;stroke-width:1.5;" width="96" x="597" y="276.5"/><text fill="#000000" font-family="sans-serif" font-size="12" lengthAdjust="spacing" textLength="82" x="604" y="290.957">DataAvailability</text><line style="stroke:#A80036;stroke-width:1.5;" x1="598" x2="692" y1="295.5938" y2="295.5938"/><rect fill="#FEFECE" filter="url(#ft1jp4fbiplc4)" height="35.0938" style="stroke:#A80036;stroke-width:1.5;" width="79" x="479.5" y="276.5"/><text fill="#000000" font-family="sans-serif" font-size="12" lengthAdjust="spacing" textLength="65" x="486.5" y="290.957">RevisitTime</text><line style="stroke:#A80036;stroke-width:1.5;" x1="480.5" x2="557.5" y1="295.5938" y2="295.5938"/><rect fill="#FEFECE" filter="url(#ft1jp4fbiplc4)" height="52.25" style="stroke:#A80036;stroke-width:1.5;" width="152" x="811" y="93.5"/><text fill="#000000" font-family="sans-serif" font-size="12" lengthAdjust="spacing" textLength="138" x="818" y="107.957">MeasuresOfPerformance</text><line style="stroke:#A80036;stroke-width:1.5;" x1="812" x2="962" y1="112.5938" y2="112.5938"/><ellipse cx="822" cy="123.5938" rx="3" ry="3" style="stroke:#038048;stroke-width:1.0;fill:none;"/><text fill="#000000" font-family="sans-serif" font-size="10" lengthAdjust="spacing" textLength="42" x="831" y="126.9746">summary</text><ellipse cx="822" cy="136.1719" rx="3" ry="3" style="stroke:#038048;stroke-width:1.0;fill:none;"/><text fill="#000000" font-family="sans-serif" font-size="10" lengthAdjust="spacing" textLength="9" x="831" y="139.5527">id</text><rect fill="#FEFECE" filter="url(#ft1jp4fbiplc4)" height="35.0938" style="stroke:#A80036;stroke-width:1.5;" width="67" x="253.5" y="276.5"/><text fill="#000000" font-family="sans-serif" font-size="12" lengthAdjust="spacing" textLength="53" x="260.5" y="290.957">Coverage</text><line style="stroke:#A80036;stroke-width:1.5;" x1="254.5" x2="319.5" y1="295.5938" y2="295.5938"/><rect fill="#FEFECE" filter="url(#ft1jp4fbiplc4)" height="35.0938" style="stroke:#A80036;stroke-width:1.5;" width="83" x="355.5" y="276.5"/><text fill="#000000" font-family="sans-serif" font-size="12" lengthAdjust="spacing" textLength="69" x="362.5" y="290.957">DataStorage</text><line style="stroke:#A80036;stroke-width:1.5;" x1="356.5" x2="437.5" y1="295.5938" y2="295.5938"/><rect fill="#FEFECE" filter="url(#ft1jp4fbiplc4)" height="35.0938" style="stroke:#A80036;stroke-width:1.5;" width="119" x="99.5" y="276.5"/><text fill="#000000" font-family="sans-serif" font-size="12" lengthAdjust="spacing" textLength="105" x="106.5" y="290.957">DownlinkCapability</text><line style="stroke:#A80036;stroke-width:1.5;" x1="100.5" x2="217.5" y1="295.5938" y2="295.5938"/><rect fill="#FEFECE" filter="url(#ft1jp4fbiplc4)" height="52.25" style="stroke:#A80036;stroke-width:1.5;" width="193" x="1218.5" y="268"/><text fill="#000000" font-family="sans-serif" font-size="12" lengthAdjust="spacing" textLength="179" x="1225.5" y="282.457">TechnicalPerformanceMeasures</text><line style="stroke:#A80036;stroke-width:1.5;" x1="1219.5" x2="1410.5" y1="287.0938" y2="287.0938"/><ellipse cx="1229.5" cy="298.0938" rx="3" ry="3" style="stroke:#038048;stroke-width:1.0;fill:none;"/><text fill="#000000" font-family="sans-serif" font-size="10" lengthAdjust="spacing" textLength="42" x="1238.5" y="301.4746">summary</text><ellipse cx="1229.5" cy="310.6719" rx="3" ry="3" style="stroke:#038048;stroke-width:1.0;fill:none;"/><text fill="#000000" font-family="sans-serif" font-size="10" lengthAdjust="spacing" textLength="9" x="1238.5" y="314.0527">id</text><rect fill="#FEFECE" filter="url(#ft1jp4fbiplc4)" height="35.0938" style="stroke:#A80036;stroke-width:1.5;" width="64" x="1043" y="381"/><text fill="#000000" font-family="sans-serif" font-size="12" lengthAdjust="spacing" textLength="50" x="1050" y="395.457">dataRate</text><line style="stroke:#A80036;stroke-width:1.5;" x1="1044" x2="1106" y1="400.0938" y2="400.0938"/><rect fill="#FEFECE" filter="url(#ft1jp4fbiplc4)" height="35.0938" style="stroke:#A80036;stroke-width:1.5;" width="81" x="1142.5" y="381"/><text fill="#000000" font-family="sans-serif" font-size="12" lengthAdjust="spacing" textLength="67" x="1149.5" y="395.457">dataStorage</text><line style="stroke:#A80036;stroke-width:1.5;" x1="1143.5" x2="1222.5" y1="400.0938" y2="400.0938"/><rect fill="#FEFECE" filter="url(#ft1jp4fbiplc4)" height="35.0938" style="stroke:#A80036;stroke-width:1.5;" width="112" x="1259" y="381"/><text fill="#000000" font-family="sans-serif" font-size="12" lengthAdjust="spacing" textLength="98" x="1266" y="395.457">engagementTime</text><line style="stroke:#A80036;stroke-width:1.5;" x1="1260" x2="1370" y1="400.0938" y2="400.0938"/><rect fill="#FEFECE" filter="url(#ft1jp4fbiplc4)" height="35.0938" style="stroke:#A80036;stroke-width:1.5;" width="82" x="1406" y="381"/><text fill="#000000" font-family="sans-serif" font-size="12" lengthAdjust="spacing" textLength="68" x="1413" y="395.457">accessTime</text><line style="stroke:#A80036;stroke-width:1.5;" x1="1407" x2="1487" y1="400.0938" y2="400.0938"/><rect fill="#FEFECE" filter="url(#ft1jp4fbiplc4)" height="35.0938" style="stroke:#A80036;stroke-width:1.5;" width="64" x="1523" y="381"/><text fill="#000000" font-family="sans-serif" font-size="12" lengthAdjust="spacing" textLength="50" x="1530" y="395.457">coverage</text><line style="stroke:#A80036;stroke-width:1.5;" x1="1524" x2="1586" y1="400.0938" y2="400.0938"/><!--MD5=[4de8c68155c09ed5e07b481f1488d8e3]
link Stakeholders to MeasuresOfEffectiveness--><path codeLine="16" d="M494.94,119.5 C513.71,119.5 536.35,119.5 558.43,119.5 " fill="none" id="Stakeholders-to-MeasuresOfEffectiveness" style="stroke:#A80036;stroke-width:1.0;"/><polygon fill="#FFFFFF" points="571.69,119.5,565.69,115.5,559.69,119.5,565.69,123.5,571.69,119.5" style="stroke:#A80036;stroke-width:1.0;"/><text fill="#000000" font-family="sans-serif" font-size="13" lengthAdjust="spacing" textLength="41" x="512.75" y="112.9951">defines</text><!--MD5=[74aba05d66dc8f8a81fce37eaa2b350c]
link MISSION to KeyPerformanceParameters--><path codeLine="17" d="M117.24,119.5 C137.13,119.5 163.06,119.5 188.65,119.5 " fill="none" id="MISSION-to-KeyPerformanceParameters" style="stroke:#A80036;stroke-width:1.0;"/><polygon fill="#FFFFFF" points="201.97,119.5,195.97,115.5,189.97,119.5,195.97,123.5,201.97,119.5" style="stroke:#A80036;stroke-width:1.0;"/><text fill="#000000" font-family="sans-serif" font-size="13" lengthAdjust="spacing" textLength="48" x="135.5" y="112.9951">analises</text><!--MD5=[ed6a581b8a80426a24e258ee977fda15]
reverse link MeasuresOfEffectiveness to DataAvailability--><path codeLine="27" d="M647.95,165.71 C647.11,201.98 645.98,250.88 645.39,276.22 " fill="none" id="MeasuresOfEffectiveness-backto-DataAvailability" style="stroke:#A80036;stroke-width:1.0;"/><polygon fill="none" points="640.96,165.42,648.42,145.58,654.95,165.74,640.96,165.42" style="stroke:#A80036;stroke-width:1.0;"/><!--MD5=[ca21244f8a2c453117ddbf377ab229e8]
reverse link MeasuresOfEffectiveness to RevisitTime--><path codeLine="28" d="M616.43,161.8 C598.56,184.46 580,208 580,208 C580,208 548.83,251.44 531.05,276.21 " fill="none" id="MeasuresOfEffectiveness-backto-RevisitTime" style="stroke:#A80036;stroke-width:1.0;"/><polygon fill="none" points="611.16,157.18,629.04,145.81,622.15,165.85,611.16,157.18" style="stroke:#A80036;stroke-width:1.0;"/><!--MD5=[8e979942e69e7ce1148462b97d11bba2]
reverse link MeasuresOfEffectiveness to MeasuresOfPerformance--><path codeLine="29" d="M739.54,119.5 C763.09,119.5 788.21,119.5 810.93,119.5 " fill="none" id="MeasuresOfEffectiveness-backto-MeasuresOfPerformance" style="stroke:#A80036;stroke-width:1.0;"/><polygon fill="#FFFFFF" points="726.27,119.5,732.27,123.5,738.27,119.5,732.27,115.5,726.27,119.5" style="stroke:#A80036;stroke-width:1.0;"/><text fill="#000000" font-family="sans-serif" font-size="13" lengthAdjust="spacing" textLength="48" x="744.5" y="112.9951">satisfies</text><!--MD5=[ad41ccf5380a773254f1c2df8f100855]
reverse link KeyPerformanceParameters to Coverage--><path codeLine="40" d="M287,165.71 C287,201.98 287,250.88 287,276.22 " fill="none" id="KeyPerformanceParameters-backto-Coverage" style="stroke:#A80036;stroke-width:1.0;"/><polygon fill="none" points="280,165.58,287,145.58,294,165.58,280,165.58" style="stroke:#A80036;stroke-width:1.0;"/><!--MD5=[332a296d439f31eaf4b9dc03f6fe0f3c]
reverse link KeyPerformanceParameters to DataStorage--><path codeLine="41" d="M313.89,162.68 C337.19,199.21 369.69,250.17 386.3,276.22 " fill="none" id="KeyPerformanceParameters-backto-DataStorage" style="stroke:#A80036;stroke-width:1.0;"/><polygon fill="none" points="307.85,166.21,302.99,145.58,319.65,158.68,307.85,166.21" style="stroke:#A80036;stroke-width:1.0;"/><!--MD5=[8af0aa255e8422cab3c6d555c807233e]
reverse link KeyPerformanceParameters to DownlinkCapability--><path codeLine="42" d="M256.44,161.68 C229.29,198.28 190.96,249.93 171.45,276.22 " fill="none" id="KeyPerformanceParameters-backto-DownlinkCapability" style="stroke:#A80036;stroke-width:1.0;"/><polygon fill="none" points="250.85,157.47,268.39,145.58,262.09,165.82,250.85,157.47" style="stroke:#A80036;stroke-width:1.0;"/><!--MD5=[a6c7609d9bd2a4f392577d4fa880b296]
reverse link KeyPerformanceParameters to DataAvailability--><path codeLine="43" d="M388.46,151.53 C389.46,151.84 390,152 390,152 C390,152 576,208 576,208 C576,208 611.26,251.44 631.37,276.21 " fill="none" id="KeyPerformanceParameters-backto-DataAvailability" style="stroke:#A80036;stroke-width:1.0;"/><polygon fill="none" points="386.23,158.17,369.16,145.63,390.33,144.78,386.23,158.17" style="stroke:#A80036;stroke-width:1.0;"/><!--MD5=[cd704d27d5142cc535f8366289454ba7]
reverse link KeyPerformanceParameters to RevisitTime--><path codeLine="44" d="M353.38,154.87 C400.71,179.37 456,208 456,208 C456,208 488.19,251.44 506.55,276.21 " fill="none" id="KeyPerformanceParameters-backto-RevisitTime" style="stroke:#A80036;stroke-width:1.0;"/><polygon fill="none" points="349.97,160.99,335.43,145.57,356.41,148.55,349.97,160.99" style="stroke:#A80036;stroke-width:1.0;"/><!--MD5=[5cf63cbfe4ae7b74bcd684948d6d6427]
reverse link TechnicalPerformanceMeasures to dataRate--><path codeLine="64" d="M1237.69,328.02 C1193.56,346.87 1140.57,369.5 1107.33,383.69 " fill="none" id="TechnicalPerformanceMeasures-backto-dataRate" style="stroke:#A80036;stroke-width:1.0;"/><polygon fill="none" points="1235.15,321.49,1256.29,320.07,1240.65,334.37,1235.15,321.49" style="stroke:#A80036;stroke-width:1.0;"/><!--MD5=[52533cf1b9aa22d7fe7e8670973232f4]
reverse link TechnicalPerformanceMeasures to dataStorage--><path codeLine="65" d="M1266.74,332.47 C1245.43,349.02 1221.46,367.63 1204.64,380.69 " fill="none" id="TechnicalPerformanceMeasures-backto-dataStorage" style="stroke:#A80036;stroke-width:1.0;"/><polygon fill="none" points="1262.62,326.81,1282.71,320.07,1271.21,337.87,1262.62,326.81" style="stroke:#A80036;stroke-width:1.0;"/><!--MD5=[cf1acf5cabecd9a8d80de819ec537d33]
reverse link TechnicalPerformanceMeasures to accessTime--><path codeLine="66" d="M1363.26,332.47 C1384.57,349.02 1408.54,367.63 1425.36,380.69 " fill="none" id="TechnicalPerformanceMeasures-backto-accessTime" style="stroke:#A80036;stroke-width:1.0;"/><polygon fill="none" points="1358.79,337.87,1347.29,320.07,1367.38,326.81,1358.79,337.87" style="stroke:#A80036;stroke-width:1.0;"/><!--MD5=[ff77d5e800aad7bf7079a5a6ffa30ed7]
reverse link TechnicalPerformanceMeasures to engagementTime--><path codeLine="67" d="M1315,340.17 C1315,354.58 1315,369.63 1315,380.69 " fill="none" id="TechnicalPerformanceMeasures-backto-engagementTime" style="stroke:#A80036;stroke-width:1.0;"/><polygon fill="none" points="1308,340.07,1315,320.07,1322,340.07,1308,340.07" style="stroke:#A80036;stroke-width:1.0;"/><!--MD5=[152cbca2ff9018721941c9f87d6ca953]
reverse link TechnicalPerformanceMeasures to coverage--><path codeLine="68" d="M1392.31,328.02 C1436.44,346.87 1489.43,369.5 1522.67,383.69 " fill="none" id="TechnicalPerformanceMeasures-backto-coverage" style="stroke:#A80036;stroke-width:1.0;"/><polygon fill="none" points="1389.35,334.37,1373.71,320.07,1394.85,321.49,1389.35,334.37" style="stroke:#A80036;stroke-width:1.0;"/><!--MD5=[68d9de5259972f8e1e3f2ab16ddd246b]
reverse link MeasuresOfPerformance to cs--><path codeLine="72" d="M923.2,154.93 C948.95,179.42 979,208 979,208 C979,208 988.69,228.59 998.5313,249.5025 C1000.9916,254.7306 1003.4613,259.9789 1005.7915,264.9307 C1006.9566,267.4065 1008.0868,269.8083 1009.1634,272.0963 C1009.7018,273.2403 1010.2267,274.3559 1010.736,275.4381 C1010.7996,275.5734 1010.863,275.7082 1010.9262,275.8424 " fill="none" id="MeasuresOfPerformance-backto-cs" style="stroke:#A80036;stroke-width:1.0;"/><polygon fill="#FFFFFF" points="913.61,145.81,915.1941,152.845,922.2971,154.0885,920.7131,147.0535,913.61,145.81" style="stroke:#A80036;stroke-width:1.0;"/><text fill="#000000" font-family="sans-serif" font-size="13" lengthAdjust="spacing" textLength="49" x="970" y="196.4951">confirms</text><!--MD5=[aa8febe39f1a19fb631ed924d1260a79]
@startuml measures

skinparam Linetype polyline

frame "FCS Tech Measures" as measures {

    frame "FCS" {
            object Stakeholders {
            +id
        }
        object MISSION {
            +objective
            +goals
            +needs
        }

        Stakeholders -o MeasuresOfEffectiveness : defines
        MISSION -o KeyPerformanceParameters : analises

        object MeasuresOfEffectiveness {
            +summary
            +id
        }

        object DataAvailability
        object RevisitTime

        MeasuresOfEffectiveness ^- - DataAvailability
        MeasuresOfEffectiveness ^- - RevisitTime
        MeasuresOfEffectiveness o- MeasuresOfPerformance : satisfies

        object KeyPerformanceParameters {
            +summary
            +id
        }

        object Coverage
        object DataStorage
        object DownlinkCapability

        KeyPerformanceParameters ^- - Coverage
        KeyPerformanceParameters ^- - DataStorage
        KeyPerformanceParameters ^- - DownlinkCapability
        KeyPerformanceParameters ^- - DataAvailability
        KeyPerformanceParameters ^- - RevisitTime

        object MeasuresOfPerformance {
            +summary
            +id
    }
    }

    frame "Constituent System" as cs {
            object TechnicalPerformanceMeasures {
            +summary
            +id
        }

        object dataRate
        object dataStorage
        object engagementTime
        object accessTime
        object coverage

        TechnicalPerformanceMeasures ^- - dataRate
        TechnicalPerformanceMeasures ^- - dataStorage
        TechnicalPerformanceMeasures ^- - accessTime
        TechnicalPerformanceMeasures ^- - engagementTime 
        TechnicalPerformanceMeasures ^- - coverage 

    }

    MeasuresOfPerformance o- - cs : confirms
}

@enduml

PlantUML version 1.2022.0(Tue Jan 11 18:16:42 EET 2022)
(GPL source distribution)
Java Runtime: Java(TM) SE Runtime Environment
JVM: Java HotSpot(TM) 64-Bit Server VM
Default Encoding: Cp1252
Language: en
Country: US
--></g></svg>