<?xml version="1.0" encoding="UTF-8" standalone="no"?><svg xmlns="http://www.w3.org/2000/svg" xmlns:xlink="http://www.w3.org/1999/xlink" contentScriptType="application/ecmascript" contentStyleType="text/css" height="322px" preserveAspectRatio="none" style="width:596px;height:322px;background:#FFFFFF;" version="1.1" viewBox="0 0 596 322" width="596px" zoomAndPan="magnify"><defs><filter height="300%" id="fyimplg51o1ih" width="300%" x="-1" y="-1"><feGaussianBlur result="blurOut" stdDeviation="2.0"/><feColorMatrix in="blurOut" result="blurOut2" type="matrix" values="0 0 0 0 0 0 0 0 0 0 0 0 0 0 0 0 0 0 .4 0"/><feOffset dx="4.0" dy="4.0" in="blurOut2" result="blurOut3"/><feBlend in="SourceGraphic" in2="blurOut3" mode="normal"/></filter></defs><g><!--MD5=[75a25cf99ea0a55ff8aebc847739908f]
cluster Resource and Services Profile--><rect fill="#FFFFFF" filter="url(#fyimplg51o1ih)" height="303" style="stroke:#000000;stroke-width:1.5;" width="577" x="7" y="7"/><path d="M231,7 L231,17.6094 L221,27.6094 L7,27.6094 " fill="none" style="stroke:#000000;stroke-width:1.5;"/><text fill="#000000" font-family="sans-serif" font-size="14" font-weight="bold" lengthAdjust="spacing" textLength="214" x="10" y="22.5332">Resource and Services Profile</text><!--MD5=[76a5c2391211d715360db3daae79ab3d]
cluster Resources Usage--><rect fill="#FFFFFF" filter="url(#fyimplg51o1ih)" height="235" style="stroke:#000000;stroke-width:1.5;" width="218" x="342" y="51"/><path d="M476,51 L476,61.6094 L466,71.6094 L342,71.6094 " fill="none" style="stroke:#000000;stroke-width:1.5;"/><text fill="#000000" font-family="sans-serif" font-size="14" font-weight="bold" lengthAdjust="spacing" textLength="124" x="345" y="66.5332">Resources Usage</text><!--MD5=[47f69971d2f646c68e58c1c2f8dfc596]
cluster Uses By Service--><rect fill="#FFFFFF" filter="url(#fyimplg51o1ih)" height="220" style="stroke:#000000;stroke-width:1.5;" width="287" x="31" y="53.5"/><path d="M155,53.5 L155,64.1094 L145,74.1094 L31,74.1094 " fill="none" style="stroke:#000000;stroke-width:1.5;"/><text fill="#000000" font-family="sans-serif" font-size="14" font-weight="bold" lengthAdjust="spacing" textLength="114" x="34" y="69.0332">Uses By Service</text><rect fill="#FEFECE" filter="url(#fyimplg51o1ih)" height="39.6719" style="stroke:#A80036;stroke-width:1.5;" width="87" x="412.5" y="87"/><text fill="#000000" font-family="sans-serif" font-size="12" lengthAdjust="spacing" textLength="40" x="436" y="101.457">Service</text><line style="stroke:#A80036;stroke-width:1.5;" x1="413.5" x2="498.5" y1="106.0938" y2="106.0938"/><ellipse cx="423.5" cy="117.0938" fill="#84BE84" rx="3" ry="3" style="stroke:#038048;stroke-width:1.0;"/><text fill="#000000" font-family="sans-serif" font-size="10" lengthAdjust="spacing" textLength="61" x="432.5" y="120.4746">Sum(b_i) = 1</text><rect fill="#FEFECE" filter="url(#fyimplg51o1ih)" height="64.8281" style="stroke:#A80036;stroke-width:1.5;" width="132" x="390" y="205"/><text fill="#000000" font-family="sans-serif" font-size="12" lengthAdjust="spacing" textLength="61" x="425.5" y="219.457">Resources</text><line style="stroke:#A80036;stroke-width:1.5;" x1="391" x2="521" y1="224.0938" y2="224.0938"/><text fill="#000000" font-family="sans-serif" font-size="10" lengthAdjust="spacing" textLength="119" x="396" y="238.4746">u_1*(b_1+b_2+..b_N) + ..</text><text fill="#000000" font-family="sans-serif" font-size="10" lengthAdjust="spacing" textLength="119" x="396" y="251.0527">u_2*(b_1+b_2+..b_N) + ..</text><text fill="#000000" font-family="sans-serif" font-size="10" lengthAdjust="spacing" textLength="120" x="396" y="263.6309">u_K*(b_1+b_2+..b_N) + ..</text><rect fill="#FEFECE" filter="url(#fyimplg51o1ih)" height="35.0938" style="stroke:#A80036;stroke-width:1.5;" width="61" x="240.5" y="89.5"/><text fill="#000000" font-family="sans-serif" font-size="12" lengthAdjust="spacing" textLength="47" x="247.5" y="103.957">Service1</text><line style="stroke:#A80036;stroke-width:1.5;" x1="241.5" x2="300.5" y1="108.5938" y2="108.5938"/><rect fill="#FEFECE" filter="url(#fyimplg51o1ih)" height="35.0938" style="stroke:#A80036;stroke-width:1.5;" width="61" x="144.5" y="89.5"/><text fill="#000000" font-family="sans-serif" font-size="12" lengthAdjust="spacing" textLength="47" x="151.5" y="103.957">Service2</text><line style="stroke:#A80036;stroke-width:1.5;" x1="145.5" x2="204.5" y1="108.5938" y2="108.5938"/><rect fill="#FEFECE" filter="url(#fyimplg51o1ih)" height="35.0938" style="stroke:#A80036;stroke-width:1.5;" width="62" x="47" y="89.5"/><text fill="#000000" font-family="sans-serif" font-size="12" lengthAdjust="spacing" textLength="48" x="54" y="103.957">ServiceK</text><line style="stroke:#A80036;stroke-width:1.5;" x1="48" x2="108" y1="108.5938" y2="108.5938"/><rect fill="#FEFECE" filter="url(#fyimplg51o1ih)" height="39.6719" style="stroke:#A80036;stroke-width:1.5;" width="91" x="129.5" y="217.5"/><text fill="#000000" font-family="sans-serif" font-size="12" lengthAdjust="spacing" textLength="54" x="148" y="231.957">Resource</text><line style="stroke:#A80036;stroke-width:1.5;" x1="130.5" x2="219.5" y1="236.5938" y2="236.5938"/><ellipse cx="140.5" cy="247.5938" fill="#84BE84" rx="3" ry="3" style="stroke:#038048;stroke-width:1.0;"/><text fill="#000000" font-family="sans-serif" font-size="10" lengthAdjust="spacing" textLength="65" x="149.5" y="250.9746">sum(u_i) &lt;= U</text><!--MD5=[bb57c75d6c1510f96fd975e006b3e540]
link Service to Resources--><path codeLine="15" d="M416.75,127.13 C398.16,139.09 381.66,155.84 390,175 C394.19,184.63 400.71,193.43 408.05,201.18 " fill="none" id="Service-to-Resources" style="stroke:#A80036;stroke-width:1.0;"/><polygon fill="#A80036" points="411.72,204.9,408.259,195.6793,408.2132,201.336,402.5565,201.2902,411.72,204.9" style="stroke:#A80036;stroke-width:1.0;"/><text fill="#000000" font-family="sans-serif" font-size="13" lengthAdjust="spacing" textLength="21" x="391" y="171.4951">b_1</text><!--MD5=[bb57c75d6c1510f96fd975e006b3e540]
link Service to Resources--><path codeLine="16" d="M454.56,127.07 C453.95,136.13 453.3,147.12 453,157 C452.58,170.89 452.95,186.15 453.56,199.55 " fill="none" id="Service-to-Resources-1" style="stroke:#A80036;stroke-width:1.0;"/><polygon fill="#A80036" points="453.81,204.78,457.3687,195.5965,453.5674,199.7859,449.3781,195.9847,453.81,204.78" style="stroke:#A80036;stroke-width:1.0;"/><text fill="#000000" font-family="sans-serif" font-size="13" lengthAdjust="spacing" textLength="21" x="454" y="171.4951">b_2</text><!--MD5=[bb57c75d6c1510f96fd975e006b3e540]
link Service to Resources--><path codeLine="17" d="M467.96,127.26 C472.71,135.99 477.6,146.66 480,157 C483.28,171.14 480.27,186.44 475.41,199.82 " fill="none" id="Service-to-Resources-2" style="stroke:#A80036;stroke-width:1.0;"/><polygon fill="#A80036" points="473.54,204.65,480.5085,197.6901,475.3378,199.9844,473.0435,194.8137,473.54,204.65" style="stroke:#A80036;stroke-width:1.0;"/><text fill="#000000" font-family="sans-serif" font-size="13" lengthAdjust="spacing" textLength="23" x="482" y="171.4951">b_N</text><!--MD5=[e6b22230a17f7330abb942bb1fabf042]
link ServiceK to Resource--><path codeLine="29" d="M90.48,124.54 C107.41,146.96 137.75,187.16 157.11,212.79 " fill="none" id="ServiceK-to-Resource" style="stroke:#A80036;stroke-width:1.0;"/><polygon fill="#A80036" points="160.35,217.09,158.1116,207.4989,157.334,213.102,151.7309,212.3245,160.35,217.09" style="stroke:#A80036;stroke-width:1.0;"/><text fill="#000000" font-family="sans-serif" font-size="13" lengthAdjust="spacing" textLength="23" x="128" y="171.4951">u_K</text><!--MD5=[52939a4cd5e55a30d05981817c0ab65b]
link Service2 to Resource--><path codeLine="30" d="M175,124.54 C175,146.69 175,186.17 175,211.83 " fill="none" id="Service2-to-Resource" style="stroke:#A80036;stroke-width:1.0;"/><polygon fill="#A80036" points="175,217.09,179,208.09,175,212.09,171,208.09,175,217.09" style="stroke:#A80036;stroke-width:1.0;"/><text fill="#000000" font-family="sans-serif" font-size="13" lengthAdjust="spacing" textLength="21" x="176" y="171.4951">u_2</text><!--MD5=[6df8086dbc6f7f7014cfc5bfadd08ca4]
link Service1 to Resource--><path codeLine="31" d="M258.65,124.54 C241.89,146.96 211.86,187.16 192.71,212.79 " fill="none" id="Service1-to-Resource" style="stroke:#A80036;stroke-width:1.0;"/><polygon fill="#A80036" points="189.5,217.09,198.089,212.2703,192.4908,213.0831,191.678,207.485,189.5,217.09" style="stroke:#A80036;stroke-width:1.0;"/><text fill="#000000" font-family="sans-serif" font-size="13" lengthAdjust="spacing" textLength="21" x="233" y="171.4951">u_1</text><!--MD5=[4134aabce65310d9a6d4705ff9e39d2f]
@startuml resourcesModelling

frame "Resource and Services Profile" {
    
    
    frame "Resources Usage" {
        object Service {
            +Sum(b_i) = 1
        }
        object Resources {
            u_1*(b_1+b_2+..b_N) + ..
            u_2*(b_1+b_2+..b_N) + ..
            u_K*(b_1+b_2+..b_N) + ..
        }

        Service - -> Resources : b_1
        Service - -> Resources : b_2
        Service - -> Resources : b_N
    }

    frame "Uses By Service" {
        object Service1
        object Service2
        object ServiceK
    
        object Resource {
            +sum(u_i) <= U
        }

        ServiceK - -> Resource : u_K
        Service2 - -> Resource : u_2
        Service1 - -> Resource : u_1
        
    }
}

@enduml

PlantUML version 1.2022.0(Tue Jan 11 18:16:42 EET 2022)
(GPL source distribution)
Java Runtime: Java(TM) SE Runtime Environment
JVM: Java HotSpot(TM) 64-Bit Server VM
Default Encoding: Cp1252
Language: en
Country: US
--></g></svg>